<?xml version="1.0" standalone="no"?>
<!DOCTYPE svg PUBLIC "-//W3C//DTD SVG 20010904//EN"
 "http://www.w3.org/TR/2001/REC-SVG-20010904/DTD/svg10.dtd">
<svg version="1.0" xmlns="http://www.w3.org/2000/svg"
 width="576.000000pt" height="240.000000pt" viewBox="0 0 576.000000 240.000000"
 preserveAspectRatio="xMidYMid meet">

<g transform="translate(0.000000,240.000000) scale(0.100000,-0.100000)"
fill="#000000" stroke="none">
<path d="M4790 1994 c-8 -2 -157 -15 -330 -29 -286 -23 -722 -60 -1020 -85
-63 -6 -196 -17 -295 -25 -99 -8 -227 -19 -285 -25 -58 -5 -240 -21 -405 -35
-573 -49 -609 -53 -623 -72 -11 -15 -9 -20 10 -36 63 -50 43 -48 337 -21 151
14 277 22 281 17 11 -12 -7 -53 -24 -53 -16 0 -26 -30 -26 -78 0 -27 4 -33 18
-30 20 3 22 0 22 -32 0 -13 -7 -20 -20 -20 -22 0 -26 -17 -35 -165 -3 -55 -9
-103 -13 -106 -4 -4 -32 -9 -62 -11 l-55 -3 3 90 c1 50 5 109 8 133 l5 44 -93
-7 c-51 -4 -94 -8 -96 -10 -1 -1 -6 -57 -10 -125 -10 -138 -16 -150 -84 -150
-21 0 -41 1 -45 3 -8 2 -7 41 3 180 l6 77 -27 0 c-21 0 -26 4 -21 16 3 9 6 22
6 30 0 8 9 14 19 14 23 0 31 19 31 71 0 38 -1 39 -34 39 -37 0 -62 -21 -52
-46 5 -13 2 -15 -19 -10 -28 7 -30 4 -15 -25 12 -21 1 -25 -19 -6 -11 10 -12
8 -6 -12 5 -17 4 -22 -5 -16 -10 6 -11 1 -7 -17 5 -17 1 -30 -11 -40 -26 -23
-119 -72 -202 -107 -41 -18 -97 -43 -125 -56 -70 -32 -283 -95 -366 -108 -38
-6 -69 -14 -69 -19 0 -4 -10 -8 -22 -8 -34 -1 -100 -34 -128 -64 -25 -27 -25
-31 -33 -254 -4 -125 -10 -255 -13 -290 l-6 -63 -196 -100 c-193 -98 -196 -99
-142 -94 50 5 998 89 2530 225 311 27 953 83 1428 125 475 41 867 77 871 80 5
2 11 21 14 42 3 21 24 146 47 278 55 318 50 373 -41 416 -32 16 -61 15 -442
-9 -224 -14 -409 -23 -411 -21 -5 6 74 433 82 440 4 4 68 39 142 79 74 40 139
76 145 81 9 9 -42 11 -75 3z m-496 -206 c-8 -89 -16 -105 -51 -111 -24 -3 -22
-4 8 -6 l36 -1 -4 -82 c-3 -46 -6 -89 -8 -95 -3 -7 -20 -13 -40 -13 -19 0 -35
-3 -35 -6 0 -3 14 -25 30 -49 17 -24 30 -48 30 -54 0 -6 -18 -11 -39 -11 -22
0 -46 -3 -54 -6 -10 -3 -30 20 -66 75 -28 44 -51 82 -51 85 0 4 19 6 43 6 54
0 63 7 70 54 6 36 5 38 -16 32 -12 -3 -44 -6 -72 -7 -45 -1 -46 -2 -16 -8 l34
-6 -102 -125 c-109 -132 -115 -137 -204 -139 l-49 -1 53 61 52 61 -49 -3 -49
-3 1 39 c1 110 17 321 24 328 6 7 410 52 503 56 l28 1 -7 -72z m-621 -40 c3
-29 5 -71 4 -93 l-2 -40 -235 -22 c-312 -29 -300 -29 -300 2 0 17 6 25 18 25
13 0 14 2 4 9 -11 7 -11 19 -1 70 11 56 14 61 38 62 14 0 107 9 206 18 99 10
199 19 221 20 l41 1 6 -52z m-603 -20 c0 -12 -10 -32 -21 -44 l-21 -23 21 6
c25 6 24 20 10 -179 -6 -84 -15 -158 -20 -165 -6 -6 -20 -14 -32 -16 -15 -3
-12 -5 10 -6 25 -1 31 -5 27 -16 -4 -9 -14 -20 -23 -25 -17 -9 -479 -55 -486
-48 -2 1 2 93 9 203 7 110 9 202 4 203 -11 5 -10 50 2 57 6 4 8 10 5 15 -6 10
29 20 72 20 22 0 33 -5 35 -17 8 -40 -20 -393 -32 -408 -11 -13 -6 -15 41 -13
38 1 44 2 20 5 l-33 4 6 82 c3 45 9 124 12 175 7 92 7 93 35 99 16 3 26 9 24
14 -3 4 7 10 22 12 16 2 4 5 -25 6 -50 1 -53 2 -46 24 3 12 7 22 8 23 1 1 317
30 354 33 16 1 22 -4 22 -21z m598 -184 c-3 -3 -303 -34 -330 -34 -6 0 -58
-157 -58 -175 0 -7 131 -1 215 11 l40 6 -3 47 -4 48 53 7 c28 4 55 3 60 -1 10
-10 16 -129 7 -138 -10 -11 -502 -54 -511 -45 -5 4 5 54 22 111 17 56 31 106
31 111 0 5 -11 6 -25 2 -23 -6 -25 -3 -25 25 0 27 4 31 28 32 15 0 133 10 262
22 l235 22 3 -23 c2 -13 2 -26 0 -28z m-1844 -176 c12 -46 6 -67 -27 -92 -94
-72 -561 -246 -659 -246 -19 0 -35 10 -54 36 -32 42 -27 49 45 57 118 14 513
164 636 241 49 31 51 31 59 4z m3423 -115 c-3 -27 -11 -109 -18 -183 -7 -74
-12 -136 -13 -137 -1 0 -18 -4 -40 -8 l-39 -8 8 184 c5 120 11 187 19 191 6 4
28 8 50 8 l39 0 -6 -47z m-173 -55 c-7 -75 -16 -98 -40 -98 -17 0 -17 5 3
-107 9 -51 14 -95 12 -97 -2 -2 -26 -6 -54 -7 l-50 -4 -20 103 c-15 82 -22
101 -35 98 -8 -3 -58 -8 -110 -11 -52 -4 -98 -12 -102 -19 -4 -6 -8 -25 -8
-41 l0 -31 73 7 c39 4 93 8 120 8 44 1 47 -1 47 -24 0 -14 -6 -25 -12 -25 -53
-2 -220 -19 -224 -23 -3 -2 -7 -29 -11 -58 -5 -46 -4 -52 8 -43 8 7 86 15 197
19 179 7 182 7 182 -13 0 -14 -8 -22 -27 -26 -25 -4 -202 -16 -324 -21 -25 -1
-49 -4 -55 -7 -5 -3 -29 -9 -53 -13 l-44 -7 6 88 c4 49 10 148 13 221 4 72 10
137 15 144 6 11 313 48 477 58 23 1 23 0 16 -71z m-534 1 c0 -12 -7 -27 -15
-33 -11 -8 -17 -54 -25 -186 -13 -204 -14 -216 -36 -224 -9 -4 -57 -9 -105
-13 -86 -6 -89 -5 -89 15 0 18 8 22 49 28 l49 6 6 102 c4 55 9 137 13 180 l6
79 -67 -6 c-65 -6 -66 -6 -66 18 0 14 1 25 3 26 2 1 228 25 260 28 11 1 17 -6
17 -20z m-307 -23 c21 -16 22 -55 2 -62 -8 -4 -15 -19 -15 -35 0 -21 4 -27 15
-23 11 5 15 -1 15 -19 0 -16 -7 -28 -18 -32 -17 -5 -20 -21 -26 -132 -4 -70
-11 -132 -16 -137 -13 -13 -162 -27 -173 -17 -16 16 5 41 34 41 26 0 29 3 29
33 0 17 3 63 7 100 l6 68 -27 -11 c-36 -13 -36 -14 -36 15 0 18 7 26 25 31 30
8 45 32 45 73 0 28 -3 31 -30 31 -25 0 -30 4 -30 25 0 21 5 25 29 25 16 0 31
6 34 14 5 13 33 20 92 24 11 1 28 -5 38 -12z m-237 -153 c-13 -269 -17 -303
-38 -314 -12 -7 -43 -8 -79 -4 l-59 7 -1 81 c-1 94 -4 91 -22 -14 l-12 -74
-53 -5 c-29 -3 -55 -4 -58 -1 -2 2 -5 43 -5 90 l-2 86 -15 -92 c-15 -91 -16
-93 -43 -93 -15 0 -29 -4 -31 -9 -1 -4 -25 -12 -52 -15 l-49 -8 6 84 c4 45 9
142 13 215 4 72 10 137 14 143 5 8 97 21 246 35 132 12 241 23 243 24 2 0 1
-61 -3 -136z m-1066 24 c0 -12 -16 -55 -35 -96 -19 -40 -35 -82 -35 -94 0 -12
10 -70 21 -130 12 -59 20 -109 18 -111 -2 -2 -25 -7 -50 -11 l-47 -7 -18 99
-18 98 -31 -100 -31 -100 -44 -6 c-25 -4 -47 -5 -49 -3 -3 3 12 59 32 127 21
67 37 129 37 138 0 9 -9 38 -21 64 -24 55 -18 65 42 65 34 0 38 -3 54 -42 l18
-43 23 50 c29 63 29 66 2 61 -13 -3 -56 -8 -96 -11 l-73 -6 3 28 3 28 115 11
c182 17 180 18 180 -9z m-317 -24 c8 -31 6 -123 -3 -123 -4 0 -11 -70 -15
-156 -5 -100 -12 -157 -19 -160 -24 -9 -91 -8 -90 1 1 6 4 78 7 160 l5 150 -9
-120 c-16 -206 -15 -202 -50 -207 l-31 -5 7 156 c4 86 9 164 11 175 5 30 25
46 55 46 16 0 29 3 29 8 0 4 -18 6 -40 4 -37 -4 -40 -2 -40 21 0 20 6 25 35
30 19 3 42 13 51 21 22 23 91 21 97 -1z m-807 -32 c40 -24 58 -77 51 -143 -12
-101 -73 -160 -179 -173 l-46 -6 -7 -99 -7 -98 -39 -4 c-47 -4 -44 -30 -24
272 8 118 15 225 15 237 0 18 7 22 43 26 113 10 162 7 193 -12z m484 8 c0 -8
16 -10 50 -5 48 6 50 6 50 -18 0 -27 -16 -36 -66 -36 -19 0 -34 -4 -34 -10 0
-5 23 -10 50 -10 47 0 50 -2 50 -25 0 -23 -4 -25 -42 -26 -34 -2 -37 -3 -13
-6 40 -6 56 -27 45 -61 -5 -15 -12 -71 -15 -125 -8 -115 -18 -127 -102 -127
-47 0 -53 2 -53 20 0 11 8 24 18 27 28 10 32 24 32 106 l0 78 -32 -5 c-18 -3
-63 -8 -100 -11 -67 -7 -68 -6 -68 18 0 29 9 32 133 42 42 4 77 10 77 15 0 5
8 11 18 13 29 8 -58 6 -138 -2 -41 -5 -78 -5 -82 -2 -4 4 -5 16 -2 29 6 19 13
22 60 22 40 0 54 4 54 14 0 12 -11 13 -55 9 -43 -5 -55 -3 -56 8 0 8 -5 3 -11
-11 -5 -14 -11 -78 -12 -142 -1 -65 -5 -121 -9 -125 -4 -3 -7 -33 -7 -65 0
-42 -4 -58 -14 -58 -7 0 -28 -3 -45 -6 l-31 -6 0 46 c0 44 -1 47 -22 41 -45
-14 -44 -14 -39 29 0 8 16 20 35 26 l34 11 7 115 c4 63 5 118 1 121 -3 4 -6
-14 -7 -38 -1 -105 -24 -169 -62 -169 -8 0 -3 143 9 238 4 36 9 42 29 42 13 0
25 -6 27 -12 3 -9 9 -8 22 5 21 20 72 23 79 3 4 -11 17 -11 64 -3 32 5 60 13
63 17 14 20 110 28 110 9z m-790 -51 c0 -24 -7 -142 -15 -262 -15 -233 -16
-236 -67 -236 -34 0 -33 -16 -13 280 8 118 15 223 15 232 0 15 18 23 63 27 14
1 17 -7 17 -41z m-125 10 c-7 -25 -119 -327 -167 -450 -28 -75 -31 -78 -62
-78 -38 0 -27 -28 -111 289 -61 229 -61 231 -3 231 22 0 29 -6 35 -27 4 -16
25 -104 48 -198 l41 -170 53 155 c94 271 88 258 124 263 18 2 36 5 40 5 5 1 5
-8 2 -20z m2085 -68 c0 -11 -6 -23 -12 -25 -14 -5 -427 -45 -465 -45 -18 0
-23 6 -23 25 0 19 5 25 23 26 12 0 103 9 202 18 254 26 275 26 275 1z m1760
-35 c0 -50 -7 -56 -62 -59 l-33 -1 4 45 c4 51 12 60 59 60 31 0 32 -1 32 -45z
m-3056 -192 c23 -125 23 -123 -23 -123 l-40 0 -11 58 c-6 31 -15 76 -19 99 -9
47 -5 51 45 52 l32 1 16 -87z"/>
<path d="M3984 1778 l-102 -10 -6 -31 c-3 -16 -4 -32 -2 -34 2 -2 66 2 142 8
144 12 164 20 164 61 0 21 -26 22 -196 6z"/>
<path d="M4128 1663 c12 -2 32 -2 45 0 12 2 2 4 -23 4 -25 0 -35 -2 -22 -4z"/>
<path d="M4018 1653 c12 -2 32 -2 45 0 12 2 2 4 -23 4 -25 0 -35 -2 -22 -4z"/>
<path d="M3908 1643 c12 -2 32 -2 45 0 12 2 2 4 -23 4 -25 0 -35 -2 -22 -4z"/>
<path d="M3798 1633 c12 -2 32 -2 45 0 12 2 2 4 -23 4 -25 0 -35 -2 -22 -4z"/>
<path d="M3897 1583 c-34 -5 -39 -17 -35 -74 l3 -43 43 57 c24 31 51 58 60 60
21 6 -33 5 -71 0z"/>
<path d="M3367 1720 c-69 -7 -87 -17 -87 -53 0 -10 -10 -22 -22 -27 -17 -7
-10 -8 27 -5 132 13 258 25 265 25 4 0 5 15 1 33 -7 31 -8 32 -61 33 -30 1
-86 -2 -123 -6z"/>
<path d="M3578 1663 c6 -2 18 -2 25 0 6 3 1 5 -13 5 -14 0 -19 -2 -12 -5z"/>
<path d="M2855 1680 c-33 -4 -50 -7 -37 -8 12 -1 22 -6 22 -12 0 -19 66 -11
85 10 13 15 14 20 4 18 -8 -1 -41 -4 -74 -8z"/>
<path d="M2930 1595 c0 -8 9 -15 20 -15 11 0 20 7 20 15 0 8 -9 15 -20 15 -11
0 -20 -7 -20 -15z"/>
<path d="M2790 1589 c0 -5 -4 -7 -10 -4 -5 3 -10 1 -10 -4 0 -6 11 -11 25 -11
16 0 25 6 25 15 0 8 -7 15 -15 15 -8 0 -15 -5 -15 -11z"/>
<path d="M2935 1515 c-3 -8 -7 -22 -10 -31 -4 -11 1 -15 18 -12 27 4 39 58 12
58 -8 0 -18 -7 -20 -15z"/>
<path d="M2767 1483 c-6 -34 -4 -37 22 -28 28 9 29 55 2 55 -12 0 -20 -9 -24
-27z"/>
<path d="M2920 1368 c0 -47 -7 -62 -30 -71 -8 -3 -1 -6 15 -6 44 -1 51 8 54
67 2 47 0 52 -18 52 -18 0 -21 -6 -21 -42z"/>
<path d="M2760 1363 c0 -21 -3 -48 -6 -60 -6 -21 -3 -23 37 -22 24 1 36 3 25
6 -16 4 -17 11 -11 59 6 53 6 54 -19 54 -23 0 -26 -4 -26 -37z"/>
<path d="M4830 1194 c-69 -7 -131 -13 -137 -13 -8 -1 -13 -14 -13 -32 l0 -32
53 6 c28 3 91 9 140 13 74 6 87 9 87 25 0 9 3 24 6 33 3 9 2 15 -2 15 -5 -1
-65 -7 -134 -15z"/>
<path d="M3700 1078 c-52 -5 -96 -10 -96 -11 -1 -1 -4 -58 -7 -127 -4 -81 -2
-111 3 -85 5 22 9 77 9 123 l1 82 30 0 c26 0 30 -4 31 -27 l1 -28 7 30 c5 23
12 31 33 33 l26 3 -4 -148 c-3 -148 -3 -148 11 -83 8 36 14 102 15 146 0 76 2
82 23 88 34 9 35 8 40 -21 l4 -28 2 28 c1 23 5 27 31 27 34 0 37 -13 21 -85
-5 -22 -6 -67 -2 -100 l8 -60 2 60 c1 33 4 90 8 128 l6 67 -54 -1 c-30 -1 -97
-6 -149 -11z"/>
<path d="M1646 904 c-3 -9 -6 -45 -6 -80 l0 -64 43 6 c23 4 50 11 59 16 25 12
42 76 29 111 -10 25 -15 27 -65 27 -40 0 -55 -4 -60 -16z"/>
<path d="M2178 1610 c-38 -3 -70 -8 -72 -11 -2 -2 -6 -28 -10 -56 l-7 -53 28
5 c15 2 58 7 96 10 53 5 67 10 67 23 0 9 3 34 6 55 7 42 16 40 -108 27z"/>
</g>
</svg>
